<svg width="41" height="41" viewBox="0 0 41 41" fill="none" xmlns="http://www.w3.org/2000/svg">
<rect x="0.57959" y="0.95166" width="40" height="40" rx="20" fill="white"/>
<g clip-path="url(#clip0_6502_20414)">
<path d="M30.5794 19.9516H12.9934L18.2864 14.6586C18.3819 14.5664 18.4581 14.4561 18.5105 14.3341C18.5629 14.2121 18.5905 14.0808 18.5916 13.9481C18.5928 13.8153 18.5675 13.6836 18.5172 13.5607C18.4669 13.4378 18.3927 13.3261 18.2988 13.2323C18.2049 13.1384 18.0932 13.0641 17.9703 13.0138C17.8474 12.9635 17.7158 12.9382 17.583 12.9394C17.4502 12.9406 17.319 12.9681 17.197 13.0205C17.075 13.073 16.9646 13.1491 16.8724 13.2446L9.87238 20.2446C9.68491 20.4322 9.57959 20.6865 9.57959 20.9516C9.57959 21.2168 9.68491 21.4711 9.87238 21.6586L16.8724 28.6587C17.061 28.8408 17.3136 28.9416 17.5758 28.9393C17.838 28.937 18.0888 28.8319 18.2742 28.6465C18.4596 28.4611 18.5648 28.2102 18.567 27.9481C18.5693 27.6859 18.4685 27.4333 18.2864 27.2446L12.9934 21.9516H30.5794C30.8446 21.9516 31.0989 21.8463 31.2865 21.6588C31.474 21.4712 31.5794 21.2169 31.5794 20.9516C31.5794 20.6864 31.474 20.4321 31.2865 20.2445C31.0989 20.057 30.8446 19.9516 30.5794 19.9516Z" fill="#333333"/>
</g>
<defs>
<clipPath id="clip0_6502_20414">
<rect width="24" height="24" fill="white" transform="translate(8.57959 8.95166)"/>
</clipPath>
</defs>
</svg>
