<svg width="24" height="24" viewBox="0 0 24 24" fill="none" xmlns="http://www.w3.org/2000/svg">
<g clip-path="url(#clip0_9830_2096)">
<path d="M0 9.9877C0 15.4963 4.48157 19.973 9.98526 19.973C12.5209 19.973 14.8403 19.0196 16.6044 17.457L22.9681 23.8206C23.086 23.9386 23.2383 23.9975 23.3956 23.9975C23.5528 23.9975 23.7052 23.9386 23.8231 23.8206C24.059 23.5848 24.059 23.2064 23.8231 22.9705L17.4545 16.6069C19.0172 14.8427 19.9705 12.5282 19.9705 9.9877C19.9705 4.4791 15.4889 0.00244141 9.98526 0.00244141C4.48157 0.00244141 0 4.4791 0 9.9877ZM18.7666 9.9877C18.7666 14.828 14.8256 18.769 9.98526 18.769C5.14496 18.769 1.20393 14.828 1.20393 9.9877C1.20393 5.1474 5.14496 1.20637 9.98526 1.20637C14.8256 1.20637 18.7666 5.14249 18.7666 9.9877Z" fill="white"/>
</g>
<defs>
<clipPath id="clip0_9830_2096">
<rect width="24" height="24" fill="white"/>
</clipPath>
</defs>
</svg>
